<mxfile host="app.diagrams.net" modified="2023-02-02T02:35:14.696Z" agent="5.0 (Windows NT 10.0; Win64; x64) AppleWebKit/537.36 (KHTML, like Gecko) Chrome/108.0.0.0 Safari/537.36" version="20.8.3" etag="cOany2yYABiRiVS0DcvH" type="github">
  <diagram id="6WatmA5d7gJP4kTS8K3C" name="Page-1">
    <mxGraphModel dx="1434" dy="764" grid="1" gridSize="10" guides="1" tooltips="1" connect="1" arrows="1" fold="1" page="1" pageScale="1" pageWidth="827" pageHeight="1169" math="0" shadow="0">
      <root>
        <mxCell id="0" />
        <mxCell id="1" parent="0" />
        <mxCell id="jsb1imqB7bnZe1ZvP7XE-9" value="" style="group" vertex="1" connectable="0" parent="1">
          <mxGeometry x="150" y="811" width="546" height="414" as="geometry" />
        </mxCell>
        <mxCell id="jsb1imqB7bnZe1ZvP7XE-1" value="" style="shape=image;verticalLabelPosition=bottom;labelBackgroundColor=default;verticalAlign=top;aspect=fixed;imageAspect=0;image=data:image/png,iVBORw0KGgoAAAANSUhEUgAAAiIAAAGeCAYAAACpVGq5AAAAAXNSR0IArs4c6QAAAARnQU1BAACxjwv8YQUAAAAJcEhZcwAADsMAAA7DAcdvqGQAACB6SURBVHhe7d19rNZ1/T/wogAhHRtkiZD6rdTKBau5zM10GjdtorbWcq7Saih4s7LcurPJ3NRhLbdqlc2Vc4uGvwSbM2NDpli66g+00G5seAMB6dQInWIh79/en/M5eji+ObzPxZvrXOd6Px7bc16fm3M65zO6Xk8+NxdvCAAAY0QRAQDGjCICAIwZRQQAGDOKCAAwZhQRAGDMKCIAwJhRRACAMaOIAABjZsQict1114UTTzwxHHrooeHwww8P55xzTvjb3/7Wbh1wwQUXhDe84Q175aSTTmq3Dti1a1e47LLLwowZM8LUqVPDWWedFbZs2dJu3b9XXnml2X/Hjh3hP//5j4iIiIyDxLkd53ec4/syYhFZuHBhuPnmm8PDDz8cHnrooXDmmWeGo446KrzwwgvtHgNF5GMf+1jYvn37q3n22WfbrQOWLl0aZs2aFdauXRs2bNgQTj/99DB37tywe/fudo+RxV9ieNkRERGR8ZGRTj6M6tLM008/3XzD9evXt2sGikg8U7IvsQ1NnDgxrFy5sl0TwtatW8OECRPCmjVr2jUji99j8BdJNS4RERHpvQyeSIhzfF9GVUT+8Y9/NN9w48aN7ZqBIjJt2rTm0s2xxx4bFi9eHJ566ql2awjr1q1rvua5555r1wyYM2dOuOqqq9qlvcVLOalfJL4GAMaHOLf3N7+zi8iePXuaeztOOeWUds2AeKbjzjvvbMrJHXfc0VxyOeGEE5oyEa1YsSJMmjSpeT3U/Pnzw0UXXdQu7W3ZsmXNDz48iggAjB9Fi8gll1wSjj766BGv80Tbtm1rLsWsWrWqWd5XEZk3b15YsmRJu7Q3Z0QAYPyLc7tIEYlPvMyePTs89thj7ZqRvfvd7w7Lly9vXndyaWa4nF8EAOgtB1xE4uWYSy+9NBx55JHh0UcfbdeO7JlnngmTJ08Ot9xyS7M8eLPqrbfe2ixH8azJaG5WVUQAYPw54CJy8cUXNzei3nvvvXs9nvviiy82259//vlwxRVXhAceeCA8/vjj4Z577gknn3xy86juzp07m32i+PhuPKNy9913N4/vnnHGGaN6fFcRAYDx54CLSPziVOJni0SxkCxYsKB5Yiae9YifMRKfotm8eXOzfdBLL73UXN6ZPn16mDJlSli0aNHr9hmJIgIA488BF5FeoYgAwPijiAAAY0YRAQDGjCICAIwZRQQAGDOKCAAwZhQRAGDMKCIAwJhRRPrY0V+7c9wFgLooIn0sNeh7PQDURRHpY6lB3+sBoC6KSB9LDfpeDwB1UUT6WGrQ93oAqIsi0sdSg77XA0BdFJE+lhr0vR4A6qKI9LHUoO/1AFAXRaSPpQZ9rweAuigifSw16Hs9ANRFEeljqUHf6wGgLopIH0sN+l4PAHVRRPpYatD3egCoiyLSx1KDvtcDQF0UkT6WGvS9HgDqooj0sdSg7/UAUBdFpI+lBn2vB4C6KCJ9LDXoez0A1EUR6WOpQd/rAaAuikgfSw36Xg8AdVFE+lhq0Pd6AKiLItLHUoO+1wNAXRSRTKmhKeUDQF0UkUypoSnlA0BdFJFMqaEp5QNAXRSRTKmhKeUDQF0UkUypoSnlA0BdFJFMqaEp5QNAXRSRTKmhKeUDQF0UkUypoSnlA0BdFJFMqaEp5QNAXRSRTKmhKeUDQF0UkUypoSnlA0BdFJFMqaEp5QNAXRSRTKmhKeUDQF0UkUypoSnlA0BdFJFMqaEp5QNAXRSRTKmhKeUDQF0UkUypoSnlA0BdFJFMqaEp5QNAXRSRTKmhKeUDQF0UkUypoSnlA0BdFJFMqaEp5QNAXRSRTKmhKeUDQF0UkUypoSnlA0BdFJFMqaEp5QNAXRSRTKmhKeUDQF0UkUypoSnlA0BdFJFMqaEp5QNAXRSRTKmhKeUDQF0UkUypoSnlA0BdFJFMqaEp5QNAXRSRTKmhKeUDQF0UkUypoSnlA0BdFJFMqaEp5QNAXQ64iFx33XXhxBNPDIceemg4/PDDwznnnBP+9re/tVsH7NmzJyxbtizMnDkzHHLIIeG0004LDz/8cLt1wK5du8Jll10WZsyYEaZOnRrOOuussGXLlnbr/iki/REA6nLARWThwoXh5ptvborFQw89FM4888xw1FFHhRdeeKHdI4Tly5eHww47LKxatSps3LgxnHvuuU0p2blzZ7tHCEuXLg2zZs0Ka9euDRs2bAinn356mDt3bti9e3e7x8gUkf4IAHU54CIy3NNPP918w/Xr1zfL8WzIEUcc0ZSRQfHsx7Rp08KNN97YLO/YsSNMnDgxrFy5slmOtm7dGiZMmBDWrFnTrhmZItIfAaAuxYvIP/7xj+YbxjMf0aZNm5rleJZjqLPPPjucf/75zet169Y1+zz33HPN8qA5c+aEq666ql3aWywz8YceTLyMo4iM/wBQlzi3ixWRePYj3ttxyimntGtCuP/++5v/gXiGY6gLL7wwLFiwoHm9YsWKMGnSpOb1UPPnzw8XXXRRu7S3eM9J/L7Do4iM7wBQl6JF5JJLLglHH330XjeZDhaRbdu2tWsGLF68uLm/JNpXEZk3b15YsmRJu7Q3Z0T6MwDUJc7tIkUkPvEye/bs8Nhjj7VrBhysSzPD5fwiByI1NKV8AKjLAReReDnm0ksvDUceeWR49NFH27WvGbxZ9frrr2/XhPDyyy8nb1a99dZbm+UonkFxs2p9AaAuB1xELr744qZU3HvvvWH79u2v5sUXX2z3GHh8N+6zevXq5ibW8847L/n4bjyjcvfddzdnT8444wyP71YYAOpywEUkfnEq8bNFBg1+oFk8MzJ58uRw6qmnvvpUzaCXXnqpubwzffr0MGXKlLBo0aKwefPmduv+KSL9EQDqcsBFpFcoIv0RAOqiiGRKDU0pHwDqoohkSg1NKR8A6qKIZEoNTSkfAOqiiGRKDU0pHwDqoohkSg1NKR8A6qKIZEoNTSkfAOqiiGRKDU0pHwDqoohkSg1NKR8A6qKIZEoNTSkfAOqiiGRKDU0pHwDqoohkSg1NKR8A6qKIZEoNTSkfAOqiiGRKDU0pHwDqoohkSg1NKR8A6qKIZEoNTSkfAOqiiGRKDU0pHwDqoohkSg1NKR8A6qKIZEoNTSkfAOqiiGRKDU0pHwDqoohkSg1NKR8A6qKIZEoNTSkfAOqiiGRKDU0pHwDqoohkSg1NKR8A6qKIZEoNTSkfAOqiiGRKDU0pHwDqoohkSg1NKR8A6qKIZEoNTSkfAOqiiGRKDU0pHwDqoohkSg1NKR8A6qKIZEoNTSkfAOqiiGRKDU0pHwDqoohkSg1NKR8A6qKIZEoNTSkfAOqiiGRKDU0pHwDqoohkSg1NKR8A6qKIZEoNTSkfAOqiiGRKDU0pHwDqoohkSg1NKR8A6qKIZEoNTSkfAOqiiGRKDU0pHwDqoohkSg1NKR8A6qKIZEoNTSkfAOqiiGRKDU0pHwDqoohkSg1NKR8A6qKIZEoNTSkfAOqiiGRKDU0pHwDqoohkSg1NKR8A6qKIZEoNTSkfAOqiiGRKDU0pHwDqoohkSg1NKR8A6qKIZEoNTSkfAOqiiGRKDU0pHwDqoohkSg1NKR8A6qKIZEoNTSkfAOqiiGRKDU0pHwDqoohkSg1NKR8A6qKIZEoNTSkfAOqiiGRKDU0pHwDqoohkSg1NKR8A6qKIZEoNTSkfAOqiiGRKDU0pHwDqoohkSg1NKR8A6qKIZEoNTSkfAOpSpIisX78+LFq0KMycObP5Zrfffnu7ZcAFF1zQrB+ak046qd06YNeuXeGyyy4LM2bMCFOnTg1nnXVW2LJlS7t1/xSR/ggAdSlSRO66665w5ZVXhlWrVjXfLFVEPvaxj4Xt27e/mmeffbbdOmDp0qVh1qxZYe3atWHDhg3h9NNPD3Pnzg27d+9u9xiZItIfAaAuRYrIUPsqIuecc0679Ho7duwIEydODCtXrmzXhLB169YwYcKEsGbNmnbN3uIZlPhDDyaePVFExn8AqEuc210pItOmTQuHH354OPbYY8PixYvDU0891W4NYd26dc3XPffcc+2aAXPmzAlXXXVVu7S3ZcuWNV8zPIrI+A4AdelKEYlnOu68886wcePGcMcddzSXXE444YTmrEa0YsWKMGnSpOb1UPPnzw8XXXRRu7Q3Z0T6MwDUJc7tg15Ehtu2bVtzKSbeUxLtq4jMmzcvLFmypF0aWc4vciBSQ1PKB4C6jEkRid797neH5cuXN687uTQznCLSHwGgLmNSRJ555pkwefLkcMsttzTLgzer3nrrrc1yFM+ajHSz6nCKSH8EgLoUKSLPP/98ePDBB5vEb3bDDTc0r5988slm2xVXXBEeeOCB8Pjjj4d77rknnHzyyc2jujt37my/w8Dju7Nnzw5333138/juGWec4fHdCgNAXYoUkVgu4jcZnvi0zIsvvhgWLFjQPDETz3ocddRRzfrNmze3Xz3gpZdeaj7QbPr06WHKlCnNB6QN32ckikh/BIC6FCkivUAR6Y8AUBdFJFNqaEr5AFAXRSRTamhK+QBQF0UkU2poSvkAUBdFJFNqaEr5AFAXRSRTamhK+QBQF0UkU2poSvkAUBdFJFNqaEr5AFAXRSRTamhK+QBQF0UkU2poSvkAUBdFJFNqaEr5AFAXRSRTamhK+QBQF0UkU2poSvkAUBdFJFNqaEr5AFAXRSRTamhK+QBQF0UkU2poSvkAUBdFJFNqaEr5AFAXRSRTamhK+QBQF0UkU2poSvkAUBdFJFNqaEr5AFAXRSRTamhK+QBQF0UkU2poSvkAUBdFJFNqaEr5AFAXRSRTamhK+QBQF0UkU2poSvkAUBdFJFNqaEr5AFAXRSRTamhK+QBQF0UkU2poSvkAUBdFJFNqaEr5AFAXRSRTamhK+QBQF0UkU2poSvkAUBdFJFNqaEr5AFAXRSRTamhK+QBQF0UkU2poSvkAUBdFJFNqaEr5AFAXRSRTamhK+QBQF0UkU2poSvkAUBdFJFNqaEr5AFAXRSRTamhK+QBQF0UkU2poSvkAUBdFJFNqaEr5AFAXRSRTamhK+QBQF0UkU2poSvkAUBdFJFNqaEr5AFAXRSRTamhK+QBQF0UkU2poSvkAUBdFJFNqaEr5AFAXRSRTamhK+QBQF0UkU2poSvkAUBdFJFNqaEr5AFAXRSRTamhK+QBQF0UkU2poSvkAUBdFJFNqaEr5AFAXRSRTamhK+QBQF0UkU2poSvkAUBdFJFNqaEr5AFAXRSRTamhK+QBQF0UkU2poSvkAUBdFJFNqaEr5AFAXRSRTamhK+QBQF0UkU2poSvkAUBdFJFNqaEr5AFAXRSRTamhK+QBQlyJFZP369WHRokVh5syZzTe7/fbb2y0D9uzZE5YtW9ZsP+SQQ8Jpp50WHn744XbrgF27doXLLrsszJgxI0ydOjWcddZZYcuWLe3W/VNE+iMA1KVIEbnrrrvClVdeGVatWpUsIsuXLw+HHXZYs33jxo3h3HPPbUrJzp072z1CWLp0aZg1a1ZYu3Zt2LBhQzj99NPD3Llzw+7du9s9RqaI9EcAqEuRIjLU8CISz4YcccQRTRkZFM9+TJs2Ldx4443N8o4dO8LEiRPDypUrm+Vo69atYcKECWHNmjXtmpEpIv0RAOpy0IvIpk2bmnXxLMdQZ599djj//POb1+vWrWv2ee6555rlQXPmzAlXXXVVu7S3WGbiDz2YeBlHERn/AaAucW4f1CJy//33N+viGY6hLrzwwrBgwYLm9YoVK8KkSZOa10PNnz8/XHTRRe3S3uI9J/H7Do8iMr4DQF26VkS2bdvWrhmwePHisHDhwub1vorIvHnzwpIlS9qlvTkj0p8BoC5xbh/UInKwLs0Ml/OLHIjU0JTyAaAuB72IDN6sev3117drQnj55ZeTN6veeuutzXIUz6C4WbW+AFCXIkXk+eefDw8++GCT+M1uuOGG5vWTTz7ZbI9PzMTisXr16ubx3fPOOy/5+O7s2bPD3Xff3Zw9OeOMMzy+W2EAqEuRInLPPfc032R4Lrjggmb74AeaxTMjkydPDqeeempTSIZ66aWXmg80mz59epgyZUrzAWmbN29ut+6fItIfAaAuRYpIL1BE+iMA1EURyZQamlI+ANRFEcmUGppSPgDURRHJlBqaUj4A1EURyZQamlI+ANRFEcmUGppSPgDURRHJlBqaUj4A1EURyZQamlI+ANRFEcmUGppSPgDURRHJlBqaUj4A1EURyZQamlI+ANRFEcmUGppSPgDURRHJlBqaUj4A1EURyZQamlI+ANRFEcmUGppSPgDURRHJlBqaUj4A1EURyZQamlI+ANRFEcmUGppSPgDURRHJlBqaUj4A1EURyZQamlI+ANRFEcmUGppSPgDURRHJlBqaUj4A1EURyZQamlI+ANRFEcmUGppSPgDURRHJlBqaUj4A1EURyZQamlI+ANRFEcmUGppSPgDURRHJlBqaUj4A1EURyZQamlI+ANRFEcmUGppSPgDURRHJlBqaUj4A1EURyZQamlI+ANRFEcmUGppSPgDURRHJlBqaUj4A1EURyZQamlI+ANRFEcmUGppSPgDURRHJlBqaUj4A1EURyZQamlI+ANRFEcmUGppSPgDURRHJlBqaUj4A1EURyZQamlI+ANRFEcmUGppSPgDURRHJlBqaUj4A1EURyZQamlI+ANRFEcmUGppSPgDURRHJlBqaUj4A1EURyZQamlI+ANRFEcmUGppSPgDURRHJlBqaUj4A1EURyZQamlI+ANRFEcmUGppSPgDURRHJlBqaUj4A1EURyZQamlI+ANRFEcmUGppSPgDURRHJlBqaUj4A1EURyZQamlI+ANRFEcmUGppSPgDURRHJlBqaUj4A1EURyZQamlI+ANRFEcmUGppSPgDURRHJlBqaUj4A1EURyZQamlI+ANRFEcmUGppSPgDUpStFZNmyZc3/yNC8/e1vb7eGsGfPnmafmTNnhkMOOSScdtpp4eGHH2635lFE+iMA1KVrReSEE04I27dvfzVPP/10uzWE5cuXh8MOOyysWrUqbNy4MZx77rlNKdm5c2e7x/4pIjJWAaBzXSsic+fObZf2Fs+GHHHEEU0ZGbRr164wbdq0cOONN7Zr9k8RkbEKAJ3rWhGZOnVqc5bjmGOOac54bNq0qdkW/xt/gA0bNjTLg84+++xw/vnnt0uvF8tK/KEHs2XLFkVExiQAdC7O7YNeRO66665w2223hT//+c9h7dq1zT0g8R6RZ555Jtx///3ND7B169Z27wEXXnhhWLBgQbv0eqn7TmIUEel2AOhcV4rIcC+88EJTRL773e++WkS2bdvWbh2wePHisHDhwnbp9ZwRkV4JAJ2Lc7vrRSSaN29eWLp0aceXZobL+UUORGoAicQA0LkxKSLxbMasWbPC1Vdf/erNqtdff327NYSXX37ZzaoybgJA57pSRK644opw7733hsceeyz8/ve/D4sWLWoe133iiSea7fGJmVg8Vq9e3Ty+e95553l8V8ZNAOhcV4rI4OeCTJw4MRx55JHhE5/4RHjkkUfara99oFk8MzJ58uRw6qmnNoVkNBQRGasA0LmuFJFuUERkrAJA5xSRTKkBJBIDQOcUkUypASQSA0DnFJFMqQEkEgNA5xSRTKkBJBIDQOcUkUypASQSA0DnFJFMqQEkEgNA5xSRTKkBJBIDQOcUkUypASQSA0DnFJFMqQEkEgNA5xSRTKkBJBIDQOcUkUypASQSA0DnFJFMqQEkEgNA5xSRTKkBJBIDQOcUkUypASQSA0DnFJFMqQEkEgNA5xSRTKkBJBIDQOcUkUypASQSA0DnFJFMqQEkEgNA5xSRTKkBJBIDQOcUkUypASQSA0DnFJFMqQEkEgNA5xSRTKkBJBIDQOcUkUypASQSA0DnFJFMqQEkEgNA5xSRTKkBJBIDQOcUkUypASQSA0DnFJFMqQEkEgNA5xSRTKkBJBIDQOcUkUypASQSA0DnFJFMqQEkEgNA5xSRTKkBJBIDQOcUkUypASQSA0DnFJFMqQEkEgNA5xSRTKkBJBIDQOcUkUypASQSA0DnFJFMqQEkEgNA5xSRTKkBJBIDQOcUkUypASQSA0DnFJFMqQEkEgNA5xSRTKkBJBIDQOcUkUypASQSA0DnFJFMqQEkEgNA5xSRTKkBJBIDQOcUkUypASQSA0DnFJFMqQEkMl4D0CsUkUypN3OR8RqAXqGIZEq9mYuM1wD0CkUkU+rNXGS8BqBXKCKZUm/mIuM1AL1CEcmUejMXGa8B6BWKSKbUm7nIeA1Ar1BEMqXezEXGawB6hSKSKfVmLjJeA9ArFJFMqTdzkfEagF6hiGRKvZmLjNcA9ApFJFPqzVxkvAagVygimVJv5iLjNQC9QhHJlHozFxmvAegVikim1Ju5yHgNQK9QRDKl3sxFpHsB+pMikin1xigi3QvQnxSRTKk3RhHpXoD+pIhkSr0xikj3AvSnnisiP/zhD8MxxxwTJk+eHD74wQ+G++67r90yMkVERHotwP71VBFZuXJlmDhxYrjpppvCX/7yl/ClL30pvOUtbwlPPvlku8e+KSIi0msB9q+nisiHPvShsHTp0nZpwHve857w9a9/vV16za5du5ofejCbN29ufpEtW7bstb5U3nH5/xMRqSKp98BeT+r3kPJJHfsDTZzbcX7v2LGjnfCv15Ui8vLLL4c3velNYfXq1e2aAV/84hfDqaee2i69ZtmyZc0PLiIiIuM/sZDsS1eKyNatW5sf5P7772/XDLj22mvDcccd1y69ZvgZkX//+99h06ZNTaMauv5AM9jUDtaZFnktjnX34lh3L4519+JYdy8lj3Wc2/H7vPLKK+2Ef72uFpEHHnigXTPgmmuuCccff3y71H3xIMWfK/6Xg8ux7h7Hunsc6+5xrLun28e6Jy/NdIs/2N3jWHePY909jnX3ONbd0+1j3dWbVS+++OJ2acB73/ve5M2q3eIPdvc41t3jWHePY909jnX3dPtYd62IDD6++9Of/rR5fPfyyy9vHt994okn2j26L96LEm+Mjf/l4HKsu8ex7h7Hunsc6+7p9rHuWhGJ4geaHX300WHSpEnNB5qtX7++3QIA1KirRQQAYChFBAAYM4oIADBmFBEAYMwoIgDAmOn7IhKf1DnmmGPC5MmTmyd17rvvvnZL2r333tvsF/f/v//7v/DjH/+43cL+jOZYr1q1KsybNy+89a1vDYcddlj48Ic/HNasWdNuZX9G++d60O9+97vmwwXnzp3brmF/Rnus4yOP3/zmN8NRRx3VPCH4zne+s/nYAvZvtMf65z//eZgzZ06YMmVKOOKII8LnPve58Mwzz7RbSYlPqy5atCjMnDmz+ayQ22+/vd2ybwd7LvZ1ERn87JKbbrqp+eySL33pS81nlzz55JPtHnt77LHHwtSpU5v94v7x6+LX33bbbe0e7Mtoj3Xcfv3114c//vGP4dFHHw3f+MY3mq/fsGFDuwf7MtpjPSj+mw9xKC5YsEARydTJsT777LPDSSedFNauXRsef/zx8Ic//OF1/84WrzfaY/3b3/42TJgwIXzve99r3rvj8gknnBA+/vGPt3uQctddd4Urr7yy+ctgThHpxlzs6yISP8116dKl7dKA97znPfv8NNevfvWrzfahlixZ0vxtnZGN9linvO997wtXX311u8S+dHqszz333PCtb32r+aAiRSTPaI/1b37zmzBt2rTw7LPPtmvINdpj/Z3vfKcp1kN9//vfD7Nnz26X2J+cItKNudi3RaSTf9/mIx/5SLN9qPj1b37zm8N///vfdg3Dlfi3hOK/zPiOd7wj/OAHP2jXkNLpsf7Zz34WTjzxxPC///1PEcnUybGO/4zFRz/60fC1r30tHHnkkeHYY48NV1xxRXjxxRfbPUjp5FjHs0zx0tevf/3rsGfPnvCvf/2r2TcOSfLkFJFuzMW+LSKD/+Lv8FOi1157bTjuuOPapb3FN424faj49fH7bNu2rV3DcJ0c6+G+/e1vh+nTp4ennnqqXUNKJ8c6Xvp629veFv7+9783y4pInk6O9cKFC5vr6GeeeWZzSSYOyfhp0p///OfbPUjp9D3kl7/8ZTj00EOboRi/Pl4W85fGfPGY7a+IdGMu9n0ReeCBB9o1A6655ppw/PHHt0t7iwf8uuuua5cGxJv74vfZvn17u4bhOjnWQ/3iF79orkHGa+qMbLTHevfu3c2ZkKE3lykieTr5cz1//vxwyCGHNPfjDIrX4t/4xjc6KzKCTo71I4880txwGf8S86c//am52f39739/+MIXvtDuwf7EY55TRA72XHRpZgiXZjpzIJdm4g1q8Y73O++8s13DSEZ7rP/97383bxjxawYTh+LgunXr1rV7Mlwnf67PP//88K53vatdGhBv8IvHO56ZIq2TY/2Zz3wmfPKTn2yXBsQbVuOxdgY7TzxWLs0cZPHmp3jNdqj3vve9I96sGrcPFW+ecrPq/o32WEfxTEj82+P+/o/A3kZzrOO9Nxs3btwr8Wvj3zLj6xdeeKHdk5TR/rn+yU9+0hTr559/vl0Twq9+9avm6Q5nREY22mP9iU98InzqU59qlwbEMypxuMYzLOxfThHpxlzs6yIy+DhYfIY//q3k8ssvbx4He+KJJ5rt8Q/4Zz/72eZ1NPiY0pe//OVm//h1pR9T6lejPdaxhMRGHT83IJ7eG8zQU9qkjfZYD+fSTL7RHutYQOJTG/Fv6vHSQfzMhnhqe/Hixe0e7Mtoj/XNN9/cvIf86Ec/Cps2bWouF8TLkLHQsG/xz+iDDz7YJBaRG264oXk9+Jj0WMzFvi4iURx08WaxeHd1/ECW+MYw6IILLginnXZauzQgfnDLBz7wgWb/+ME6PtAs32iOdXwd/08wPHE/9m+0f66HUkRGZ7TH+q9//WvzYX3xzEgsJV/5ylecDck02mMdH9eNj/3HYx3vF/n0pz8d/vnPf7ZbSbnnnntGfO9NHeeDPRf7vogAAL1LEQEAxowiAgCMGUUEABgziggAMGYUEQBgzCgiAMCYUUQAgDGjiAAAY0YRAQDGjCICAIwZRQQAGDOKCAAwRkL4/6ZFDcobR5GaAAAAAElFTkSuQmCC;" vertex="1" parent="jsb1imqB7bnZe1ZvP7XE-9">
          <mxGeometry width="546" height="414" as="geometry" />
        </mxCell>
        <mxCell id="jsb1imqB7bnZe1ZvP7XE-4" value="" style="endArrow=none;dashed=1;html=1;rounded=0;strokeColor=#FF3333;entryX=0.284;entryY=0.024;entryDx=0;entryDy=0;entryPerimeter=0;strokeWidth=3;" edge="1" parent="jsb1imqB7bnZe1ZvP7XE-9" target="jsb1imqB7bnZe1ZvP7XE-1">
          <mxGeometry width="50" height="50" relative="1" as="geometry">
            <mxPoint x="155" y="380" as="sourcePoint" />
            <mxPoint x="155" y="20" as="targetPoint" />
          </mxGeometry>
        </mxCell>
        <mxCell id="jsb1imqB7bnZe1ZvP7XE-5" value="86%" style="text;html=1;strokeColor=none;fillColor=none;align=center;verticalAlign=middle;whiteSpace=wrap;rounded=0;fontColor=#FF3333;fontStyle=1;fontSize=14;" vertex="1" parent="jsb1imqB7bnZe1ZvP7XE-9">
          <mxGeometry x="189" y="80" width="60" height="30" as="geometry" />
        </mxCell>
        <mxCell id="jsb1imqB7bnZe1ZvP7XE-10" value="" style="group" vertex="1" connectable="0" parent="1">
          <mxGeometry x="150" y="210" width="554" height="430" as="geometry" />
        </mxCell>
        <mxCell id="jsb1imqB7bnZe1ZvP7XE-2" value="" style="shape=image;verticalLabelPosition=bottom;labelBackgroundColor=default;verticalAlign=top;aspect=fixed;imageAspect=0;image=data:image/png,iVBORw0KGgoAAAANSUhEUgAAAioAAAGuCAYAAAC++S3gAAAAAXNSR0IArs4c6QAAAARnQU1BAACxjwv8YQUAAAAJcEhZcwAADsMAAA7DAcdvqGQAACO7SURBVHhe7d1tqFXnmTfw1uJrE6SxaTT6JPnQtAmZ6jCEaQtBR+tLIWqgDGSEjoFijElkppAPT9uAUmiDDtN8awk0JfSDVB+qgZBKqIbEgFIaxoRoZvIyeVM0NCTWUYnKWO+He521Ez3e0Uavvb3PWb8f/Mlea2097pXDvv5nvezzmQQAUClFBQColqICAFRLUQEAqqWoAADVUlQAgGopKgBAtRQVAKBaigoAUC1FBQColqICAFRrxBSVv/zlL2n//v3p8OHD6X/+539ERERkBCTP7Ty/8xy/GCOmqOQX+ZnPfEZERERGYPIcvxgjpqjkRtZ7oaXGJiIiIvWld6Ahz/GLMWKKSn6x+YXm/wIAI8Olzm9FBQDoG0UFAKiWogIAVEtRAQCqpagAANVSVACAaikqAEC1FBUAoFp9Lyq/+MUv0te+9rV05ZVXNvnGN76Rtm7d2m5N6fTp02nt2rVp2rRpacKECWnOnDlp79697dYhJ06cSKtXr05TpkxJkyZNSkuWLPnUH6WrqADAyNP3ovLEE0+k3/3ud+nVV19t8qMf/SiNHTv2ozKybt26psBs3rw57dmzJ915551NaTly5EizPVu1alWaPn162rZtW9q9e3eaO3dumjVrVjp16lT7jAtTVABg5Ol7USn5whe+kB599NHmaMrUqVObstKTj55Mnjw5PfLII81y/mz/XGw2btzYLGcHDhxIY8aMSU899VS75lz578kvqpfe7wq42BcKAAxentsDKyr5CMhvfvObNG7cuPTyyy+nN954o/ni+SjJmZYuXZqWL1/ePH766aeb5xw6dKhZ7pk5c2Zas2ZNu3SufDop/7nhUVQAYOQYSFF56aWX0uc///n0uc99rjlakk8FZTt37my+eD5Ccqa77747LVy4sHm8YcOGptgMt2DBgrRy5cp26VyOqADAyJfndt+LysmTJ9Prr7+enn/++fSDH/wgffGLX2yOqPSKysGDB9tnDlmxYkVatGhR8/iTisr8+fPTPffc0y5d2KW+UABg8AZSVIb71re+1RwN6eepn+EUFQAYeS5LUZk3b1666667PrqYdv369e2WoaMvpYtpN23a1Cxn+QjMhS6mHa7fReX6//vkiAsA1K7vReWHP/xheu6559Jbb73VXKuSb0/OJeP3v/99sz3f8ZOLyZYtW5rbk5ctW1a8PXnGjBlp+/btzdGXXHRquz25VARqDwDUru9F5Xvf+166/vrrm+tMrr766ua0T6+kZL0PfMtHVsaPH59mz57dFJYzHT9+vPnAt6uuuipNnDgxLV68OO3bt6/d+tdRVM4NANSu70WlForKuQGA2ikqQUpFoPYAQO0UlSClIlB7AKB2ikqQUhGoPQBQO0UlSKkI1B4AqJ2iEqRUBGoPANROUQlSKgK1BwBqp6gEKRWB2gMAtVNUgpSKQO0BgNopKkFKRaD2AEDtFJUgpSJQewCgdopKkFIRqD0AUDtFJUipCNQeAKidohKkVARqDwDUTlEJUioCtQcAaqeoBCkVgdoDALVTVIKUikDtAYDaKSpBSkWg9gBA7RSVIKUiUHsAoHaKSpBSEag9AFA7RSVIqQjUHgConaISpFQEag8A1E5RCVIqArUHAGqnqAQpFYHaAwC1U1SClIpA7QGA2ikqQUpFoPYAQO0UlSClIlB7AKB2ikqQUhGoPQBQO0UlSKkI1B4AqJ2iEqRUBGoPANROUQlSKgK1BwBqp6gEKRWB2gMAtVNUgpSKQO0BgNopKkFKRaD2AEDtFJUgpSJQewCgdopKkFIRqD0AUDtFJUipCNQeAKidohKkVARqDwDUTlEJUioCtQcAaqeoBCkVgdoDALVTVIKUikDtAYDaKSpBSkWg9gBA7RSVIKUiUHsAoHaKSpBSEag9AFA7RSVIqQjUHgConaISpFQEag8A1E5RCVIqArUHAGqnqAQpFYHaAwC1U1SClIpA7QGA2vW9qDz00EPp1ltvTVdccUW6+uqr0x133JFeeeWVduuQu+66q/lHnJmvf/3r7dYhJ06cSKtXr05TpkxJkyZNSkuWLEn79+9vt16YonJuAKB2fS8qixYtSo899ljau3dvevHFF9Ptt9+errvuunTs2LH2GUNF5dvf/nZ69913P8oHH3zQbh2yatWqNH369LRt27a0e/fuNHfu3DRr1qx06tSp9hnnp6icGwCoXd+LynDvvfde8wV37NjRrhkqKvlIyyc5fPhwGjt2bNq4cWO7JqUDBw6kMWPGpKeeeqpdc7Z8BCa/qF7y0RdF5ewAQO3y3B5oUXn99debL7hnz552zVBRmTx5cnNq6MYbb0wrVqxIf/rTn9qtKT399NPNnzl06FC7ZsjMmTPTmjVr2qWzrV27tvkzw6OofBwAqN1Ai8rp06eba0tuu+22ds2QfKTkySefbMrLE0880ZzSueWWW5qjItmGDRvSuHHjmsdnWrBgQVq5cmW7dDZHVC4cAKhdntsDKyr33Xdfuv766y94EezBgwebUz2bN29ulj+pqMyfPz/dc8897dL5XeoLvZBSEag9AFC7gRWVfMfOjBkz0ptvvtmuOb8vf/nLad26dc3jizn1M5yicm4AoHZ9Lyr5dM/999+frr322vTaa6+1a8/v/fffT+PHj0+//vWvm+XexbSbNm1qlrN81OV8F9MOp6icGwCoXd+Lyr333ttcKPvss8+edfvxhx9+2Gw/evRoeuCBB9KuXbvSW2+9lZ555pn0zW9+s7kV+ciRI81zsnx7cj4is3379ub25Hnz5rk9+RIDALXre1HJf3kp+bNVslxYFi5c2Nzxk4+a5M9YyXcB7du3r9nec/z48eb00VVXXZUmTpyYFi9efM5zzkdROTcAULu+F5VaKCrnBgBqp6gEKRWB2gMAtVNUgpSKQO0BgNopKkFKRaD2AEDtFJUgpSJQewCgdopKkFIRqD0AUDtFJUipCNQeAKidohKkVARqDwDUTlEJUioCtQcAaqeoBCkVgdoDALVTVIKUikDtAYDaKSpBSkWg9gBA7RSVIKUiUHsAoHaKSpBSEag9AFA7RSVIqQjUHgConaISpFQEag8A1E5RCVIqArUHAGqnqAQpFYHaAwC1U1SClIpA7QGA2ikqQUpFoPYAQO0UlSClIlB7AKB2ikqQUhGoPQBQO0UlSKkI1B4AqJ2iEqRUBGoPANROUQlSKgK1BwBqp6gEKRWB2gMAtVNUgpSKQO0BgNopKkFKRaD2AEDtFJUgpSJQewCgdopKkFIRqD0AUDtFJUipCNQeAKidohKkVARqDwDUTlEJUioCtQcAaqeoBCkVgdoDALVTVIKUikDtAYDaKSpBSkWg9gBA7RSVIKUiUHsAoHaKSpBSEag9AFA7RSVIqQjUHgConaISpFQEag8A1E5RCVIqArUHAGqnqAQpFYHaAwC1U1SClIpA7QGA2ikqQUpFoPYAQO0UlSClIiDxAaBbFJUgpaEq8QGgWxSVIKWhKvEBoFsUlSCloSrxAaBbFJUgpaEq8QGgW/peVB566KF06623piuuuCJdffXV6Y477kivvPJKu3XI6dOn09q1a9O0adPShAkT0pw5c9LevXvbrUNOnDiRVq9enaZMmZImTZqUlixZkvbv399uvTBFZXQEgG7pe1FZtGhReuyxx5ri8eKLL6bbb789XXfddenYsWPtM1Jat25duvLKK9PmzZvTnj170p133tmUliNHjrTPSGnVqlVp+vTpadu2bWn37t1p7ty5adasWenUqVPtM85PURkdAaBb+l5UhnvvvfeaL7hjx45mOR9NmTp1alNWevLRk8mTJ6dHHnmkWT58+HAaO3Zs2rhxY7OcHThwII0ZMyY99dRT7ZrzU1RGRwDoloEXlddff735gvnISfbGG280y/koyZmWLl2ali9f3jx++umnm+ccOnSoWe6ZOXNmWrNmTbt0tlx28ovqJZ8mUlRGfgDoljy3B1ZU8tGTfG3Jbbfd1q5JaefOnc0/IB8hOdPdd9+dFi5c2DzesGFDGjduXPP4TAsWLEgrV65sl86Wr3nJf+/wKCojOwB0y0CLyn333Zeuv/76sy6C7RWVgwcPtmuGrFixorm+JfukojJ//vx0zz33tEtnc0RldAaAbslzeyBFJd+xM2PGjPTmm2+2a4b069TPcJf6Qi+kNFQlPgB0S9+LSj7dc//996drr702vfbaa+3aj/Uupl2/fn27JqWTJ08WL6bdtGlTs5zlIzAupu1eAOiWvheVe++9tykdzz77bHr33Xc/yocfftg+Y+j25PycLVu2NBfZLlu2rHh7cj4is3379uboy7x589ye3MEA0C19Lyr5Ly8lf7ZKT+8D3/KRlfHjx6fZs2d/dFdQz/Hjx5vTR1dddVWaOHFiWrx4cdq3b1+79cIUldERALql70WlForK6AgA3aKoBCkNVYkPAN2iqAQpDVWJDwDdoqgEKQ1ViQ8A3aKoBCkNVYkPAN2iqAQpDVWJDwDdoqgEKQ1ViQ8A3aKoBCkNVYkPAN2iqAQpDVWJDwDdoqgEKQ1ViQ8A3aKoBCkNVYkPAN2iqAQpDVWJDwDdoqgEKQ1ViQ8A3aKoBCkNVYkPAN2iqAQpDVWJDwDdoqgEKQ1ViQ8A3aKoBCkNVYkPAN2iqAQpDVWJDwDdoqgEKQ1ViQ8A3aKoBCkNVYkPAN2iqAQpDVWJDwDdoqgEKQ1ViQ8A3aKoBCkNVYkPAN2iqAQpDVWJDwDdoqgEKQ1ViQ8A3aKoBCkNVYkPAN2iqAQpDVWJDwDdoqgEKQ1ViQ8A3aKoBCkNVYkPAN2iqAQpDVWJDwDdoqgEKQ1ViQ8A3aKoBCkNVYkPAN2iqAQpDVWJDwDdoqgEKQ1ViQ8A3aKoBCkNVYkPAN2iqAQpDVWJDwDdoqgEKQ1ViQ8A3aKoBCkNVYkPAN2iqAQpDVWJDwDdoqgEKQ1ViQ8A3aKoBCkNVYkPAN2iqAQpDVWJDwDdoqgEKQ1ViQ8A3aKoBCkNVYkPAN2iqAQpDVWJDwDdoqgEKQ1ViQ8A3aKoBCkNVYkPAN2iqAQpDVWJDwDdoqgEKQ1ViQ8A3TKQorJjx460ePHiNG3atOaLPf744+2WIXfddVez/sx8/etfb7cOOXHiRFq9enWaMmVKmjRpUlqyZEnav39/u/XCFJXREQC6ZSBFZevWrenBBx9Mmzdvbr5Yqah8+9vfTu++++5H+eCDD9qtQ1atWpWmT5+etm3blnbv3p3mzp2bZs2alU6dOtU+4/wUldERALplIEXlTJ9UVO6444526VyHDx9OY8eOTRs3bmzXpHTgwIE0ZsyY9NRTT7Vrzk9RGR0BoFuqKSqTJ09OV199dbrxxhvTihUr0p/+9Kd2a0pPP/108+cOHTrUrhkyc+bMtGbNmnbpbPlUUX5RveTTRIrKyA8A3ZLn9mUvKvlIyZNPPpn27NmTnnjiieaUzi233NKUjWzDhg1p3LhxzeMzLViwIK1cubJdOtvatWubrzU8isrIDgDdUkVRGe7gwYPNqZ58TUv2SUVl/vz56Z577mmXzuaIyugMAN2S53Z1RSX78pe/nNatW9c8vphTP8Nd6gu9kNJQlfgA0C1VFpX3338/jR8/Pv36179ulnsX027atKlZzvJRFxfTdi8AdMtAisrRo0fTCy+80CR/sYcffrh5/M477zTbHnjggbRr16701ltvpWeeeSZ985vfbG5FPnLkSPs3DN2ePGPGjLR9+/bm9uR58+a5PbmDAaBbBlJUcvnIX2R48t0+H374YVq4cGFzx08+anLdddc16/ft29f+6SHHjx9vPvDtqquuShMnTmw+QG74c85HURkdAaBbBlJUaqCojI4A0C2KSpDSUJX4ANAtikqQ0lCV+ADQLYpKkNJQlfgA0C2KSpDSUJX4ANAtikqQ0lCV+ADQLYpKkNJQlfgA0C2KSpDSUJX4ANAtikqQ0lCV+ADQLYpKkNJQlfgA0C2KSpDSUJX4ANAtikqQ0lCV+ADQLYpKkNJQlfgA0C2KSpDSUJX4ANAtikqQ0lCV+ADQLYpKkNJQlfgA0C2KSpDSUJX4ANAtikqQ0lCV+ADQLYpKkNJQlfgA0C2KSpDSUJX4ANAtikqQ0lCV+ADQLYpKkNJQlfgA0C2KSpDSUJX4ANAtikqQ0lCV+ADQLYpKkNJQlfgA0C2KSpDSUJX4ANAtikqQ0lCV+ADQLYpKkNJQlfgA0C2KSpDSUJX4ANAtikqQ0lCV+ADQLYpKkNJQlfgA0C2KSpDSUJX4ANAtikqQ0lCV+ADQLYpKkNJQlfgA0C2KSpDSUJX4ANAtikqQ0lCV+ADQLYpKkNJQlfgA0C2KSpDSUJX4ANAtikqQ0lCV+ADQLYpKkNJQlfgA0C2KSpDSUJX4ANAtikqQ0lCV+ADQLYpKkNJQlfgA0C2KSpDSUJX4ANAtikqQ0lCV+ADQLYpKkNJQlfgA0C2KSpDSUJX4ANAtikqQ0lCV+ADQLYpKkNJQlfgA0C2KSpDSUJX4ANAtAykqO3bsSIsXL07Tpk1rvtjjjz/ebhly+vTptHbt2mb7hAkT0pw5c9LevXvbrUNOnDiRVq9enaZMmZImTZqUlixZkvbv399uvTBFZXQEgG4ZSFHZunVrevDBB9PmzZuLRWXdunXpyiuvbLbv2bMn3XnnnU1pOXLkSPuMlFatWpWmT5+etm3blnbv3p3mzp2bZs2alU6dOtU+4/wUldERALplIEXlTMOLSj6aMnXq1Kas9OSjJ5MnT06PPPJIs3z48OE0duzYtHHjxmY5O3DgQBozZkx66qmn2jVny39HflG95KMvisrIDwDdkuf2ZS0qb7zxRrMuHyU509KlS9Py5cubx08//XTznEOHDjXLPTNnzkxr1qxpl86WTyXlPzM8isrIDgDdctmLys6dO5t1+QjJme6+++60cOHC5vGGDRvSuHHjmsdnWrBgQVq5cmW7dDZHVEZnAOiWPLerKCoHDx5s1wxZsWJFWrRoUfP4k4rK/Pnz0z333NMund+lvtALKQ1ViQ8A3XLZi0q/Tv0Mp6iMjgDQLZe9qPQupl2/fn27JqWTJ08WL6bdtGlTs5zlIzDnu5h2OEVldASAbhlIUTl69Gh64YUXmuQv9vDDDzeP33nnnWZ7vuMnF5MtW7Y0tycvW7aseHvyjBkz0vbt25ujL/PmzXN7cgcDQLcMpKg888wzzRcZnrvuuqvZ3vvAt3xkZfz48Wn27NlNYTnT8ePHmw98u+qqq9LEiRObD5Dbt29fu/XCFJXREQC6ZSBFpQaKyugIAN2iqAQpDVWJDwDdoqgEKQ1ViQ8A3aKoBCkNVYkPAN2iqAQpDVWJDwDdoqgEKQ1ViQ8A3aKoBCkNVYkPAN2iqAQpDVWJDwDdoqgEKQ1ViQ8A3aKoBCkNVYkPAN2iqAQpDVWJDwDdoqgEKQ1ViQ8A3aKoBCkNVYkPAN2iqAQpDVWJDwDdoqgEKQ1ViQ8A3aKoBCkNVYkPAN2iqAQpDVWJDwDdoqgEKQ1ViQ8A3aKoBCkNVYkPAN2iqAQpDVWJDwDdoqgEKQ1ViQ8A3aKoBCkNVYkPAN2iqAQpDVWJDwDdoqgEKQ1ViQ8A3aKoBCkNVYkPAN2iqAQpDVWJDwDdoqgEKQ1ViQ8A3aKoBCkNVYkPAN2iqAQpDVWJDwDdoqgEKQ1ViQ8A3aKoBCkNVYkPAN2iqAQpDVWJDwDdoqgEKQ1ViQ8A3aKoBCkNVYkPAN2iqAQpDVWJDwDdoqgEKQ1ViQ8A3aKoBCkNVYkPAN2iqAQpDVWJDwDdoqgEKQ1ViQ8A3aKoBCkNVYkPAN2iqAQpDVWJDwDdoqgEKQ1ViQ8A3aKoBCkNVYkPAN2iqAQpDVWJDwDdoqgEKQ1ViQ8A3aKoBCkNVYkPAN2iqAQpDVWJDwDdoqgEKQ1ViQ8A3aKoBCkNVYkPAN1SRVFZu3Zt8484M9dcc027NaXTp083z5k2bVqaMGFCmjNnTtq7d2+79a+jqIyOANAt1RSVW265Jb377rsf5b333mu3prRu3bp05ZVXps2bN6c9e/akO++8syktR44caZ9xYYrK6AgA3VJNUZk1a1a7dLZ8NGXq1KlNWek5ceJEmjx5cnrkkUfaNefKz8kvqpf9+/crKqMgAHRLnttVFJVJkyY1R0luuOGG5ojJG2+80WzL/83/wN27dzfLPUuXLk3Lly9vl85VOp2Uo6iM7ADQLVUUla1bt6bf/va36aWXXkrbtm1rrkHJ16i8//77aefOnc0/8MCBA+2zh9x9991p4cKF7dK5HFEZnQGgW/LcvuxFZbhjx441ReVnP/vZR0Xl4MGD7dYhK1asSIsWLWqXLuxSX+iFlIaqxAeAbqmyqGTz589Pq1atuuhTP8MpKqMjAHRLlUUln7aZPn16+vGPf/zRxbTr169vt6Z08uTJC15MO5yiMjoCQLdUUVQeeOCB9Oyzz6Y333wz/eEPf0iLFy9ubkd+++23m+35jp9cTLZs2dLcnrxs2TK3J3c0AHRLFUWl97koY8eOTddee236zne+k15++eV268cf+JaPrIwfPz7Nnj27KSyfhqIyOgJAt1RRVAZBURkdAaBbFJUgpaEq8QGgWxSVIKWhKvEBoFsUlSCloSrxAaBbFJUgpaEq8QGgWxSVIKWhKvEBoFsUlSCloSrxAaBbFJUgpaEq8QGgWxSVIKWhKvEBoFsUlSCloSrxAaBbFJUgpaEq8QGgWxSVIKWhKvEBoFsUlSCloSrxAaBbFJUgpaEq8QGgWxSVIKWhKvEBoFsUlSCloSrxAaBbFJUgpaEq8QGgWxSVIKWhKvEBoFsUlSCloSrxAaBbFJUgpaEq8QGgWxSVIKWhKvEBoFsUlSCloSrxAaBbFJUgpaEq8QGgWxSVIKWhKvEBoFsUlSCloSqSA8DFU1SClAaUSA4AF09RCVIaUCI5AFw8RSVIaUCJ5ABw8RSVIKUBJZIDwMVTVIKUBpRIDgAXT1EJUhpQIjkAXDxFJUhpQInkAHDxFJUgpQElkgPAxVNUgpQGlEgOABdPUQlSGlAiOQBcPEUlSGlAieQAcPEUlSClASWSA8DFU1SClAaUSA4AF09RCVIaUCI5AFw8RSVIaUCJ5ABw8RSVIKUBJZIDwMVTVIKUBpTISA1ALRSVIKU3e5GRGoBaKCpBSm/2IiM1ALVQVIKU3uxFRmoAaqGoBCm92YuM1ADUQlEJUnqzFxmpAaiFohKk9GYvMlIDUAtFJUjpzV5kpAagFiOuqPz85z9PN9xwQxo/fnz6u7/7u/Tcc8+1W85PURH56wNQixFVVDZu3JjGjh2bfvnLX6b//M//TP/6r/+aPv/5z6d33nmnfcYnU1RERneA0WlEFZW///u/T6tWrWqXhtx0003pBz/4Qbv0yRQVkdEdYHQaMUXl5MmT6XOf+1zasmVLu2bIv/zLv6TZs2e3Sx87ceJE86J62bdvX/NC9+/ff9b6qPyf7/8/EZFPldJ7iUgvpe+Z2lN6HZeaPLfz/D58+HA74T+dgRWVAwcONP/QnTt3tmuG/PSnP01f+cpX2qWPrV27tnm+iIiIjPzkwnIxBl5Udu3a1a4Z8pOf/CR99atfbZc+NvyIyp///Of0xhtvNI3szPUR6bW9fh2tkXNjn1+e2O+Dj31+eWK/Dz6ftM/z3M7r/vKXv7QT/tOp9tTPIOUdmXdu/i+DYZ9fHvb74Nnnl4f9Pnj92ucDv5j23nvvbZeG3HzzzX/VxbT95Bt68Ozzy8N+Hzz7/PKw3wevX/t8oEWld3vyr371q+b25O9///vN7clvv/12+4zLwzf04Nnnl4f9Pnj2+eVhvw9ev/b5QItKlj/w7frrr0/jxo1rPvBtx44d7ZbLJ18Pky/ezf9lMOzzy8N+Hzz7/PKw3wevX/t84EUFAOCvpagAANVSVACAaikqAEC1FBUAoFqdLyr5LqQbbrghjR8/vrkL6bnnnmu3ECHf1bV48eI0bdq05ra1xx9/vN0y5PTp081V4nn7hAkT0pw5c9LevXvbrVyMhx56KN16663piiuuSFdffXW644470iuvvNJuHWK/x/vFL36Rvva1r6Urr7yyyTe+8Y20devWdqt9Pgj5ez+/z+TfzN9jv8fL+zPv5zNzzTXXtFvj93mni0rvc11++ctfNp/rkr+58+e6vPPOO+0zuFT5jfrBBx9Mmzdvbr6ZhxeVdevWNW/qefuePXvSnXfe2XxzHzlypH0Gn9aiRYvSY4891rwxvPjii+n2229P1113XTp27Fj7DPu9H5544on0u9/9Lr366qtNfvSjHzXvL703aPu8v/74xz82P3TOnDnzrKJiv8fLJeSWW25J77777kd577332q3x+7zTRSV/Uu6qVavapSE33XTTZf+k3NFqeFHJrXvq1KnNN3VPvv9+8uTJ6ZFHHmnXcKnyG0je973PLLLfB+cLX/hCevTRR+3zPjt69Gi68cYb07Zt25qf3ntFxX7vj1xUZs2a1S6drR/7vLNFpebfPTRaDS8q+ZdM5nW7d+9u1wxZunRpWr58ebvEpXr99deb/Zx/ssns9/47depU+s1vftN8sOXLL79sn/dZ3of5k86zM4uK/d4fuahMmjSpOUqSj2LlIyZ5X2f92OedLSq93+a8c+fOds2Qn/70p+krX/lKu0SkvL/PLCp53+d1+f/Fme6+++60cOHCdolLkX+6WbJkSbrtttvaNfZ7P7300kvN6eP8Q1D+CTKfCsrs8/7JhfBv/uZv0vHjx5vlM4uK/d4f+ZT+b3/72+b7vXcUK1+j8v777/dln3e+qOzatatdM+QnP/lJ+upXv9ouESnv71JROXjwYLtmyIoVK5rrLLh09913X/MrK/KvWO+x3/snH6nNR7Cef/755hTyF7/4xeaIin3eH/v27Utf+tKXmmuxekpFxX7vr3z9Wy4qP/vZz/qyz536cepnYPI3r1M/g7N69eo0Y8aM9Oabb7Zrhtjvg/Otb30rrVy50j7vk/x+kvdrfi/vJS9/9rOfbR7/93//t/0+IPPnz2+u+XTqJ1i+mPbee+9tl4bcfPPNLqbtk/zNe2ZR6V10tX79+nbNUIF0odulyfv1/vvvT9dee2167bXX2rUfs98HZ968eemuu+6yz/sk30WSr706M/nW/O9+97vNY/t9MPLFstOnT08//vGP+7LPO11Uercn/+pXv2puT84XY+Xzy2+//Xb7DC5Vvhr/hRdeaJKLysMPP9w87t0Cnq8Mz9/A+chWfmNZtmyZWwcvUS7feZ8+++yzZ90++OGHH7bPsN/74Yc//GHzOUxvvfVWc+4+3548ZsyY9Pvf/77Zbp8PxpmnfjL7Pd4DDzzQvL/ko7V/+MMfms/Kyrcj92Zn9D7vdFHJ8ge+5XP4+er8/IFvvVs4ifHMM880BWV48k+ZWW7f+Qry3MDzh+7l0275G5uLV9rfOfmzVXrs93jf+973PnovyR+0l0/79EpKZp8PxvCiYr/H630uSv5BPx+5/c53vtNci9UTvc87X1QAgHopKgBAtRQVAKBaigoAUC1FBQColqICAFRLUQEAqqWoAADVUlQAgGopKsBADf/kUIDzUVSAgVJUgE9DUQEGSlEBPg1FBeibY8eOpX/+539ufit5/gVl//7v/35WUcm/LPHxxx9vHvfk37ra+wWK+TcR5+ds3rw5/cM//EOaOHFimjlzZtq1a1ezHRj9FBWgb+699940Y8aM5rcIv/TSS82vg7/iiis+dVG56aab0pNPPpleffXV9I//+I/Nbyn+3//93+Y5wOimqAB9cfTo0TRu3Li0cePGdk1KH3zwQXNU5NMWlUcffbRZzvKvk8/r/uu//qtdA4xmigrQFy+++GJTKN555512zZC//du//dRF5Y9//GOznB06dKhZt2PHjnYNMJopKkBfvPDCCxcsKp/97GfTli1bmsc9kyZNOqeo5L+r589//nOz7plnnmnXAKOZogL0RT71M3bs2LRp06Z2zdDRkFxEekXlS1/6Uvr5z3/ePM5ee+21poQoKkCPogL0zapVq9J1112Xtm/fnvbs2ZOWLl161sW0//RP/5Ruvvnm9B//8R/p+eefT/PmzWvKjaIC9CgqQN/koyrf/e53m6Mo11xzTfq3f/u3s25PPnDgQFq4cGFz+/KNN96Ytm7dWrxGRVGB7lJUAIBqKSoAQLUUFQCgWooKAFAtRQUAqJaiAgBUS1EBACqV0v8Hsy3Dj1/ZYFYAAAAASUVORK5CYII=;" vertex="1" parent="jsb1imqB7bnZe1ZvP7XE-10">
          <mxGeometry width="554" height="430" as="geometry" />
        </mxCell>
        <mxCell id="jsb1imqB7bnZe1ZvP7XE-7" value="" style="endArrow=none;dashed=1;html=1;rounded=0;strokeColor=#FF3333;strokeWidth=3;fontSize=14;fontColor=#FF3333;" edge="1" parent="jsb1imqB7bnZe1ZvP7XE-10">
          <mxGeometry width="50" height="50" relative="1" as="geometry">
            <mxPoint x="159" y="380" as="sourcePoint" />
            <mxPoint x="159" y="10" as="targetPoint" />
          </mxGeometry>
        </mxCell>
        <mxCell id="jsb1imqB7bnZe1ZvP7XE-8" value="95%" style="text;html=1;strokeColor=none;fillColor=none;align=center;verticalAlign=middle;whiteSpace=wrap;rounded=0;fontColor=#FF3333;fontStyle=1;fontSize=14;" vertex="1" parent="jsb1imqB7bnZe1ZvP7XE-10">
          <mxGeometry x="193" y="90" width="60" height="30" as="geometry" />
        </mxCell>
        <mxCell id="jsb1imqB7bnZe1ZvP7XE-11" value="载重误差分布" style="text;html=1;strokeColor=none;fillColor=none;align=center;verticalAlign=middle;whiteSpace=wrap;rounded=0;fontSize=17;fontColor=#1A1A1A;fontStyle=1" vertex="1" parent="1">
          <mxGeometry x="360" y="170" width="157" height="30" as="geometry" />
        </mxCell>
        <mxCell id="jsb1imqB7bnZe1ZvP7XE-12" value="载重误差率分布" style="text;html=1;strokeColor=none;fillColor=none;align=center;verticalAlign=middle;whiteSpace=wrap;rounded=0;fontSize=17;fontColor=#1A1A1A;fontStyle=1" vertex="1" parent="1">
          <mxGeometry x="344.5" y="761" width="157" height="30" as="geometry" />
        </mxCell>
        <mxCell id="jsb1imqB7bnZe1ZvP7XE-13" value="车辆数：15&lt;br&gt;行程数：&amp;nbsp; 535个行程&lt;br&gt;时间范围：2022年 10月11日~10月30日" style="text;whiteSpace=wrap;html=1;fontSize=17;fontColor=#1A1A1A;verticalAlign=middle;fontStyle=1" vertex="1" parent="1">
          <mxGeometry x="150" y="20" width="400" height="90" as="geometry" />
        </mxCell>
      </root>
    </mxGraphModel>
  </diagram>
</mxfile>
